<mxfile host="app.diagrams.net" modified="2023-07-22T19:33:58.539Z" agent="Mozilla/5.0 (Macintosh; Intel Mac OS X 10_15_7) AppleWebKit/537.36 (KHTML, like Gecko) Chrome/114.0.0.0 Safari/537.36" etag="8fEo0Ji4z2mzdztGX6Fb" version="21.6.5" type="github">
  <diagram id="6a731a19-8d31-9384-78a2-239565b7b9f0" name="Page-1">
    <mxGraphModel dx="4923" dy="3121" grid="1" gridSize="10" guides="1" tooltips="1" connect="1" arrows="1" fold="1" page="1" pageScale="1" pageWidth="1169" pageHeight="827" background="none" math="0" shadow="0">
      <root>
        <mxCell id="0" />
        <mxCell id="1" parent="0" />
        <mxCell id="1350" value="Rate Limiting Algorithms" style="ellipse;whiteSpace=wrap;html=1;shadow=0;fontFamily=Helvetica;fontSize=20;fontColor=#FFFFFF;align=center;strokeWidth=3;fillColor=#1699D3;strokeColor=none;aspect=fixed;" parent="1" vertex="1">
          <mxGeometry x="523.5" y="250" width="150" height="150" as="geometry" />
        </mxCell>
        <mxCell id="1351" value="Common Issues in distributed Env" style="ellipse;whiteSpace=wrap;html=1;shadow=0;fontFamily=Helvetica;fontSize=20;fontColor=#FFFFFF;align=center;strokeWidth=3;fillColor=#F08705;strokeColor=none;gradientColor=none;aspect=fixed;" parent="1" vertex="1">
          <mxGeometry x="1103.5" y="210" width="166.5" height="166.5" as="geometry" />
        </mxCell>
        <mxCell id="1352" value="Optimisations" style="ellipse;whiteSpace=wrap;html=1;shadow=0;fontFamily=Helvetica;fontSize=20;fontColor=#FFFFFF;align=center;strokeWidth=3;fillColor=#E85642;strokeColor=none;aspect=fixed;" parent="1" vertex="1">
          <mxGeometry x="1830" y="931.5" width="136.5" height="136.5" as="geometry" />
        </mxCell>
        <mxCell id="1353" value="Rate limiting core concepts" style="ellipse;whiteSpace=wrap;html=1;shadow=0;fontFamily=Helvetica;fontSize=20;fontColor=#FFFFFF;align=center;strokeWidth=3;fillColor=#1699D3;strokeColor=none;aspect=fixed;" parent="1" vertex="1">
          <mxGeometry x="2220" y="-84.5" width="176" height="176" as="geometry" />
        </mxCell>
        <mxCell id="1354" value="Monitoring&lt;br&gt;Effectiveness of Rate Limiter" style="ellipse;whiteSpace=wrap;html=1;shadow=0;fontFamily=Helvetica;fontSize=20;fontColor=#FFFFFF;align=center;strokeWidth=3;fillColor=#736ca8;strokeColor=none;aspect=fixed;" parent="1" vertex="1">
          <mxGeometry x="1550" y="1306" width="146" height="146" as="geometry" />
        </mxCell>
        <mxCell id="1355" value="Types of Rate Limiting" style="ellipse;whiteSpace=wrap;html=1;shadow=0;fontFamily=Helvetica;fontSize=20;fontColor=#FFFFFF;align=center;strokeWidth=3;fillColor=#F08705;strokeColor=none;aspect=fixed;" parent="1" vertex="1">
          <mxGeometry x="1038" y="1452" width="131" height="131" as="geometry" />
        </mxCell>
        <mxCell id="1359" style="endArrow=none;strokeWidth=6;strokeColor=#1699D3;html=1;" parent="1" source="1515" target="1350" edge="1">
          <mxGeometry relative="1" as="geometry" />
        </mxCell>
        <mxCell id="1360" style="endArrow=none;strokeWidth=6;strokeColor=#f08705;html=1;" parent="1" source="1515" target="1351" edge="1">
          <mxGeometry relative="1" as="geometry" />
        </mxCell>
        <mxCell id="1361" style="endArrow=none;strokeWidth=6;strokeColor=#E85642;html=1;" parent="1" source="1515" target="1352" edge="1">
          <mxGeometry relative="1" as="geometry" />
        </mxCell>
        <mxCell id="1362" style="endArrow=none;strokeWidth=6;strokeColor=#1699D3;html=1;" parent="1" source="o9pdHSFh_AW5zNJV-_QS-1553" target="1353" edge="1">
          <mxGeometry relative="1" as="geometry" />
        </mxCell>
        <mxCell id="1363" style="endArrow=none;strokeWidth=6;strokeColor=#736CA8;html=1;" parent="1" source="1515" target="1516" edge="1">
          <mxGeometry relative="1" as="geometry" />
        </mxCell>
        <mxCell id="1364" style="endArrow=none;strokeWidth=6;strokeColor=#736ca8;html=1;" parent="1" source="1515" target="1354" edge="1">
          <mxGeometry relative="1" as="geometry" />
        </mxCell>
        <mxCell id="1365" value="" style="edgeStyle=none;endArrow=none;strokeWidth=6;strokeColor=#F08705;html=1;" parent="1" source="1515" target="1355" edge="1">
          <mxGeometry x="181" y="226.5" width="100" height="100" as="geometry">
            <mxPoint x="181" y="326.5" as="sourcePoint" />
            <mxPoint x="281" y="226.5" as="targetPoint" />
          </mxGeometry>
        </mxCell>
        <mxCell id="1371" value="Leaking Bucket" style="rounded=1;fillColor=#64BBE2;strokeColor=none;strokeWidth=3;shadow=0;html=1;fontColor=#FFFFFF;fontSize=14;" parent="1" vertex="1">
          <mxGeometry x="283.5" y="181.5" width="130" height="40" as="geometry" />
        </mxCell>
        <mxCell id="1372" value="Token Bucket" style="rounded=1;fillColor=#64BBE2;strokeColor=none;strokeWidth=3;shadow=0;html=1;fontColor=#FFFFFF;fontSize=14;" parent="1" vertex="1">
          <mxGeometry x="413.5" y="90" width="130" height="40" as="geometry" />
        </mxCell>
        <mxCell id="1373" value="Fixed Window Counter" style="rounded=1;fillColor=#64BBE2;strokeColor=none;strokeWidth=3;shadow=0;html=1;fontColor=#FFFFFF;fontSize=14;" parent="1" vertex="1">
          <mxGeometry x="200" y="311.5" width="156.5" height="40" as="geometry" />
        </mxCell>
        <mxCell id="1383" value="" style="edgeStyle=none;endArrow=none;strokeWidth=3;strokeColor=#64BBE2;html=1;" parent="1" source="1350" target="1371" edge="1">
          <mxGeometry x="-221.5" y="56.5" width="100" height="100" as="geometry">
            <mxPoint x="-221.5" y="156.5" as="sourcePoint" />
            <mxPoint x="-121.5" y="56.5" as="targetPoint" />
          </mxGeometry>
        </mxCell>
        <mxCell id="1384" value="" style="edgeStyle=none;endArrow=none;strokeWidth=3;strokeColor=#64BBE2;html=1;" parent="1" source="1350" target="1372" edge="1">
          <mxGeometry x="-221.5" y="56.5" width="100" height="100" as="geometry">
            <mxPoint x="-221.5" y="156.5" as="sourcePoint" />
            <mxPoint x="-121.5" y="56.5" as="targetPoint" />
          </mxGeometry>
        </mxCell>
        <mxCell id="1385" value="" style="edgeStyle=none;endArrow=none;strokeWidth=3;strokeColor=#64BBE2;html=1;" parent="1" source="1350" target="1373" edge="1">
          <mxGeometry x="-221.5" y="56.5" width="100" height="100" as="geometry">
            <mxPoint x="-221.5" y="156.5" as="sourcePoint" />
            <mxPoint x="-121.5" y="56.5" as="targetPoint" />
          </mxGeometry>
        </mxCell>
        <mxCell id="o9pdHSFh_AW5zNJV-_QS-1548" value="" style="edgeStyle=orthogonalEdgeStyle;rounded=0;orthogonalLoop=1;jettySize=auto;html=1;curved=1;" edge="1" parent="1" source="1392" target="o9pdHSFh_AW5zNJV-_QS-1547">
          <mxGeometry relative="1" as="geometry" />
        </mxCell>
        <mxCell id="1392" value="Race Condition&lt;br&gt;b/w&lt;br&gt;concurrent requests" style="rounded=1;fillColor=#f5af58;strokeColor=none;strokeWidth=3;shadow=0;html=1;fontColor=#FFFFFF;fontSize=14;" parent="1" vertex="1">
          <mxGeometry x="903.5" y="60" width="150" height="61.5" as="geometry" />
        </mxCell>
        <mxCell id="o9pdHSFh_AW5zNJV-_QS-1550" value="" style="edgeStyle=orthogonalEdgeStyle;rounded=0;orthogonalLoop=1;jettySize=auto;html=1;elbow=vertical;curved=1;exitX=0.5;exitY=0;exitDx=0;exitDy=0;" edge="1" parent="1" source="1393" target="o9pdHSFh_AW5zNJV-_QS-1549">
          <mxGeometry relative="1" as="geometry" />
        </mxCell>
        <mxCell id="1393" value="Synchronisation Issue&lt;br&gt;b/w&lt;br&gt;multiple rate limiters" style="rounded=1;fillColor=#f5af58;strokeColor=none;strokeWidth=3;shadow=0;html=1;fontColor=#FFFFFF;fontSize=14;" parent="1" vertex="1">
          <mxGeometry x="1253.5" y="65" width="165" height="51.5" as="geometry" />
        </mxCell>
        <mxCell id="1404" value="" style="edgeStyle=none;endArrow=none;strokeWidth=3;strokeColor=#F5AF58;html=1;" parent="1" source="1351" target="1392" edge="1">
          <mxGeometry x="3.5" y="21.5" width="100" height="100" as="geometry">
            <mxPoint x="3.5" y="121.5" as="sourcePoint" />
            <mxPoint x="103.5" y="21.5" as="targetPoint" />
          </mxGeometry>
        </mxCell>
        <mxCell id="1405" value="" style="edgeStyle=none;endArrow=none;strokeWidth=3;strokeColor=#F5AF58;html=1;" parent="1" source="1351" target="1393" edge="1">
          <mxGeometry x="3.5" y="21.5" width="100" height="100" as="geometry">
            <mxPoint x="3.5" y="121.5" as="sourcePoint" />
            <mxPoint x="103.5" y="21.5" as="targetPoint" />
          </mxGeometry>
        </mxCell>
        <mxCell id="1417" value="Setting up &lt;b&gt;Multi-Data Centres&lt;/b&gt;&lt;br style=&quot;font-size: 14px;&quot;&gt;to decrease latency for users&lt;br style=&quot;font-size: 14px;&quot;&gt;geographically far from data centres" style="rounded=1;fillColor=#f08e81;strokeColor=none;strokeWidth=3;shadow=0;html=1;fontColor=#FFFFFF;fontSize=14;" parent="1" vertex="1">
          <mxGeometry x="2120" y="1050" width="234" height="76.5" as="geometry" />
        </mxCell>
        <mxCell id="1418" value="Multiple Rate Limiters" style="rounded=1;fillColor=#f08e81;strokeColor=none;strokeWidth=3;shadow=0;html=1;fontColor=#FFFFFF;fontSize=14;" parent="1" vertex="1">
          <mxGeometry x="2080" y="1307.5" width="159" height="41.5" as="geometry" />
        </mxCell>
        <mxCell id="1428" value="" style="edgeStyle=none;endArrow=none;strokeWidth=3;strokeColor=#F08E81;html=1;" parent="1" source="1352" target="1417" edge="1">
          <mxGeometry x="31" y="106.5" width="100" height="100" as="geometry">
            <mxPoint x="260" y="1025.5" as="sourcePoint" />
            <mxPoint x="360" y="925.5" as="targetPoint" />
          </mxGeometry>
        </mxCell>
        <mxCell id="1429" value="" style="edgeStyle=none;endArrow=none;strokeWidth=3;strokeColor=#F08E81;html=1;" parent="1" source="1352" target="1418" edge="1">
          <mxGeometry x="31" y="106.5" width="100" height="100" as="geometry">
            <mxPoint x="260" y="1025.5" as="sourcePoint" />
            <mxPoint x="360" y="925.5" as="targetPoint" />
          </mxGeometry>
        </mxCell>
        <mxCell id="1440" value="Identifier" style="rounded=1;fillColor=#64BBE2;strokeColor=none;strokeWidth=3;shadow=0;html=1;fontColor=#FFFFFF;fontSize=14;" parent="1" vertex="1">
          <mxGeometry x="2480" y="-170" width="120" height="40" as="geometry" />
        </mxCell>
        <mxCell id="1441" value="Limit" style="rounded=1;fillColor=#64BBE2;strokeColor=none;strokeWidth=3;shadow=0;html=1;fontColor=#FFFFFF;fontSize=14;" parent="1" vertex="1">
          <mxGeometry x="2480" y="106.5" width="120" height="40" as="geometry" />
        </mxCell>
        <mxCell id="1442" value="Window" style="rounded=1;fillColor=#64BBE2;strokeColor=none;strokeWidth=3;shadow=0;html=1;fontColor=#FFFFFF;fontSize=14;" parent="1" vertex="1">
          <mxGeometry x="2530" y="-16.5" width="120" height="40" as="geometry" />
        </mxCell>
        <mxCell id="1451" value="" style="edgeStyle=none;endArrow=none;strokeWidth=3;strokeColor=#64BBE2;html=1;" parent="1" source="1353" target="1440" edge="1">
          <mxGeometry x="-24" y="196.5" width="100" height="100" as="geometry">
            <mxPoint x="358.5" y="-511.5" as="sourcePoint" />
            <mxPoint x="458.5" y="-611.5" as="targetPoint" />
          </mxGeometry>
        </mxCell>
        <mxCell id="1452" value="" style="edgeStyle=none;endArrow=none;strokeWidth=3;strokeColor=#64BBE2;html=1;" parent="1" source="1353" target="1442" edge="1">
          <mxGeometry x="-24" y="196.5" width="100" height="100" as="geometry">
            <mxPoint x="358.5" y="-511.5" as="sourcePoint" />
            <mxPoint x="458.5" y="-611.5" as="targetPoint" />
          </mxGeometry>
        </mxCell>
        <mxCell id="1453" value="" style="edgeStyle=none;endArrow=none;strokeWidth=3;strokeColor=#64BBE2;html=1;" parent="1" source="1353" target="1441" edge="1">
          <mxGeometry x="-24" y="196.5" width="100" height="100" as="geometry">
            <mxPoint x="358.5" y="-511.5" as="sourcePoint" />
            <mxPoint x="458.5" y="-611.5" as="targetPoint" />
          </mxGeometry>
        </mxCell>
        <mxCell id="o9pdHSFh_AW5zNJV-_QS-1583" value="" style="edgeStyle=orthogonalEdgeStyle;rounded=0;orthogonalLoop=1;jettySize=auto;html=1;curved=1;fillColor=#d0cee2;strokeColor=#56517e;" edge="1" parent="1" source="1460" target="o9pdHSFh_AW5zNJV-_QS-1582">
          <mxGeometry relative="1" as="geometry" />
        </mxCell>
        <mxCell id="1460" value="Effectiveness of &lt;br style=&quot;font-size: 14px;&quot;&gt;Rate Limiter Algorithm" style="rounded=1;fillColor=#a29dc5;strokeColor=none;strokeWidth=3;shadow=0;html=1;fontColor=#FFFFFF;fontSize=14;" parent="1" vertex="1">
          <mxGeometry x="1830" y="1536" width="170" height="40" as="geometry" />
        </mxCell>
        <mxCell id="o9pdHSFh_AW5zNJV-_QS-1581" value="" style="edgeStyle=orthogonalEdgeStyle;rounded=0;orthogonalLoop=1;jettySize=auto;html=1;fillColor=#d0cee2;strokeColor=#56517e;elbow=vertical;curved=1;" edge="1" parent="1" source="1461" target="o9pdHSFh_AW5zNJV-_QS-1580">
          <mxGeometry relative="1" as="geometry" />
        </mxCell>
        <mxCell id="1461" value="Effectiveness of&lt;br style=&quot;font-size: 14px;&quot;&gt;Rate Limiting Rules" style="rounded=1;fillColor=#a29dc5;strokeColor=none;strokeWidth=3;shadow=0;html=1;fontColor=#FFFFFF;fontSize=14;" parent="1" vertex="1">
          <mxGeometry x="1560" y="1633.5" width="150" height="40" as="geometry" />
        </mxCell>
        <mxCell id="1463" value="" style="edgeStyle=none;endArrow=none;strokeWidth=3;strokeColor=#A29DC5;html=1;" parent="1" source="1354" target="1460" edge="1">
          <mxGeometry x="251" y="-103.5" width="100" height="100" as="geometry">
            <mxPoint x="170" y="440.5" as="sourcePoint" />
            <mxPoint x="270" y="340.5" as="targetPoint" />
          </mxGeometry>
        </mxCell>
        <mxCell id="1464" value="" style="edgeStyle=none;endArrow=none;strokeWidth=3;strokeColor=#A29DC5;html=1;" parent="1" source="1354" target="1461" edge="1">
          <mxGeometry x="251" y="-103.5" width="100" height="100" as="geometry">
            <mxPoint x="170" y="440.5" as="sourcePoint" />
            <mxPoint x="270" y="340.5" as="targetPoint" />
          </mxGeometry>
        </mxCell>
        <mxCell id="1472" value="Soft Rate Limiting" style="rounded=1;fillColor=#f5af58;strokeColor=none;strokeWidth=3;shadow=0;html=1;fontColor=#FFFFFF;" parent="1" vertex="1">
          <mxGeometry x="1180" y="1660" width="120" height="40" as="geometry" />
        </mxCell>
        <mxCell id="o9pdHSFh_AW5zNJV-_QS-1585" value="" style="edgeStyle=orthogonalEdgeStyle;rounded=0;orthogonalLoop=1;jettySize=auto;html=1;fillColor=#fad7ac;strokeColor=#b46504;curved=1;" edge="1" parent="1" source="1473" target="o9pdHSFh_AW5zNJV-_QS-1584">
          <mxGeometry relative="1" as="geometry" />
        </mxCell>
        <mxCell id="1473" value="Hard Rate Limiting" style="rounded=1;fillColor=#f5af58;strokeColor=none;strokeWidth=3;shadow=0;html=1;fontColor=#FFFFFF;" parent="1" vertex="1">
          <mxGeometry x="828.5" y="1633.5" width="120" height="40" as="geometry" />
        </mxCell>
        <mxCell id="1484" value="" style="edgeStyle=none;endArrow=none;strokeWidth=3;strokeColor=#F5AF58;html=1;" parent="1" source="1355" target="1472" edge="1">
          <mxGeometry x="243.5" y="39" width="100" height="100" as="geometry">
            <mxPoint x="43.5" y="361" as="sourcePoint" />
            <mxPoint x="143.5" y="261" as="targetPoint" />
          </mxGeometry>
        </mxCell>
        <mxCell id="1515" value="Rate Limiter" style="ellipse;whiteSpace=wrap;html=1;shadow=0;fontFamily=Helvetica;fontSize=30;fontColor=#2F5B7C;align=center;strokeColor=#2F5B7C;strokeWidth=6;fillColor=#FFFFFF;fontStyle=1;gradientColor=none;" parent="1" vertex="1">
          <mxGeometry x="961" y="676.5" width="270" height="270" as="geometry" />
        </mxCell>
        <mxCell id="1516" value="References" style="ellipse;whiteSpace=wrap;html=1;shadow=0;fontFamily=Helvetica;fontSize=20;fontColor=#FFFFFF;align=center;strokeWidth=3;fillColor=#736ca8;strokeColor=none;" parent="1" vertex="1">
          <mxGeometry x="312" y="721.5" width="120" height="120" as="geometry" />
        </mxCell>
        <UserObject label="https://redis.io/docs/data-types/sorted-sets/" link="https://redis.io/docs/data-types/sorted-sets/" id="1524">
          <mxCell style="rounded=1;fillColor=#a29dc5;strokeColor=none;strokeWidth=3;shadow=0;html=1;fontColor=#FFFFFF;fontSize=14;" parent="1" vertex="1">
            <mxGeometry x="-40" y="891.5" width="310" height="40" as="geometry" />
          </mxCell>
        </UserObject>
        <UserObject label="https://engineering.classdojo.com/blog/2015/02/06/rolling-rate-limiter/" link="https://engineering.classdojo.com/blog/2015/02/06/rolling-rate-limiter/" id="1525">
          <mxCell style="rounded=1;fillColor=#a29dc5;strokeColor=none;strokeWidth=3;shadow=0;html=1;fontColor=#FFFFFF;fontSize=14;" parent="1" vertex="1">
            <mxGeometry x="-270" y="766.5" width="450" height="40" as="geometry" />
          </mxCell>
        </UserObject>
        <UserObject label="https://blog.bytebytego.com/p/rate-limiting-fundamentals" link="https://blog.bytebytego.com/p/rate-limiting-fundamentals" id="1526">
          <mxCell style="rounded=1;fillColor=#a29dc5;strokeColor=none;strokeWidth=3;shadow=0;html=1;fontColor=#FFFFFF;fontSize=14;" parent="1" vertex="1">
            <mxGeometry x="-150" y="636.5" width="380" height="40" as="geometry" />
          </mxCell>
        </UserObject>
        <mxCell id="1536" value="" style="edgeStyle=none;endArrow=none;strokeWidth=3;strokeColor=#A29DC5;html=1;" parent="1" source="1516" target="1524" edge="1">
          <mxGeometry x="-1498" y="-303.5" width="100" height="100" as="geometry">
            <mxPoint x="-1498" y="-203.5" as="sourcePoint" />
            <mxPoint x="-1398" y="-303.5" as="targetPoint" />
          </mxGeometry>
        </mxCell>
        <mxCell id="1537" value="" style="edgeStyle=none;endArrow=none;strokeWidth=3;strokeColor=#A29DC5;html=1;" parent="1" source="1516" target="1525" edge="1">
          <mxGeometry x="-1498" y="-303.5" width="100" height="100" as="geometry">
            <mxPoint x="-1498" y="-203.5" as="sourcePoint" />
            <mxPoint x="-1398" y="-303.5" as="targetPoint" />
          </mxGeometry>
        </mxCell>
        <mxCell id="1538" value="" style="edgeStyle=none;endArrow=none;strokeWidth=3;strokeColor=#A29DC5;html=1;" parent="1" source="1516" target="1526" edge="1">
          <mxGeometry x="-1498" y="-303.5" width="100" height="100" as="geometry">
            <mxPoint x="-1498" y="-203.5" as="sourcePoint" />
            <mxPoint x="-1398" y="-303.5" as="targetPoint" />
          </mxGeometry>
        </mxCell>
        <mxCell id="1542" style="edgeStyle=none;rounded=0;html=1;exitX=0.5;exitY=1;endArrow=none;endFill=0;jettySize=auto;orthogonalLoop=1;strokeColor=#736CA8;strokeWidth=2;fillColor=#64bbe2;fontSize=14;fontColor=#23445D;" parent="1" edge="1">
          <mxGeometry relative="1" as="geometry">
            <mxPoint x="137" y="771.5" as="sourcePoint" />
            <mxPoint x="137" y="771.5" as="targetPoint" />
          </mxGeometry>
        </mxCell>
        <mxCell id="o9pdHSFh_AW5zNJV-_QS-1543" value="Sliding Window Log" style="rounded=1;fillColor=#64BBE2;strokeColor=none;strokeWidth=3;shadow=0;html=1;fontColor=#FFFFFF;fontSize=14;" vertex="1" parent="1">
          <mxGeometry x="250" y="421.5" width="140" height="40" as="geometry" />
        </mxCell>
        <mxCell id="o9pdHSFh_AW5zNJV-_QS-1544" value="" style="edgeStyle=none;endArrow=none;strokeWidth=3;strokeColor=#64BBE2;html=1;" edge="1" parent="1" target="o9pdHSFh_AW5zNJV-_QS-1543" source="1350">
          <mxGeometry x="-221.5" y="56.5" width="100" height="100" as="geometry">
            <mxPoint x="518.5" y="397" as="sourcePoint" />
            <mxPoint x="-128" y="108.5" as="targetPoint" />
          </mxGeometry>
        </mxCell>
        <mxCell id="o9pdHSFh_AW5zNJV-_QS-1545" value="Sliding Window Counter" style="rounded=1;fillColor=#64BBE2;strokeColor=none;strokeWidth=3;shadow=0;html=1;fontColor=#FFFFFF;fontSize=14;" vertex="1" parent="1">
          <mxGeometry x="368.5" y="530" width="170" height="40" as="geometry" />
        </mxCell>
        <mxCell id="o9pdHSFh_AW5zNJV-_QS-1546" value="" style="edgeStyle=none;endArrow=none;strokeWidth=3;strokeColor=#64BBE2;html=1;" edge="1" parent="1" target="o9pdHSFh_AW5zNJV-_QS-1545" source="1350">
          <mxGeometry x="-221.5" y="56.5" width="100" height="100" as="geometry">
            <mxPoint x="572.2236686701372" y="393.12072289553225" as="sourcePoint" />
            <mxPoint x="-46.5" y="178.5" as="targetPoint" />
          </mxGeometry>
        </mxCell>
        <mxCell id="o9pdHSFh_AW5zNJV-_QS-1547" value="&lt;b&gt;Solution&lt;br&gt;&lt;/b&gt;&lt;br&gt;Use of sorted sets in redis,&lt;br&gt;that allows to&amp;nbsp;" style="ellipse;shape=cloud;whiteSpace=wrap;html=1;fontSize=14;fillColor=#ffe6cc;strokeColor=#d79b00;rounded=1;strokeWidth=3;shadow=0;" vertex="1" parent="1">
          <mxGeometry x="773.5" y="-110" width="230" height="110" as="geometry" />
        </mxCell>
        <mxCell id="o9pdHSFh_AW5zNJV-_QS-1549" value="It arises when multiple rate limiters are introduced and web tiers are stateless,&lt;br&gt;Possible solution is to use centralised data stores like Redis" style="ellipse;shape=cloud;whiteSpace=wrap;html=1;fontSize=14;fillColor=#ffe6cc;strokeColor=#d79b00;rounded=1;strokeWidth=3;shadow=0;" vertex="1" parent="1">
          <mxGeometry x="1431" y="-130" width="299" height="130" as="geometry" />
        </mxCell>
        <mxCell id="o9pdHSFh_AW5zNJV-_QS-1554" value="" style="endArrow=none;strokeWidth=6;strokeColor=#1699D3;html=1;" edge="1" parent="1" source="1515" target="o9pdHSFh_AW5zNJV-_QS-1553">
          <mxGeometry relative="1" as="geometry">
            <mxPoint x="1231" y="812" as="sourcePoint" />
            <mxPoint x="1838" y="812" as="targetPoint" />
          </mxGeometry>
        </mxCell>
        <mxCell id="o9pdHSFh_AW5zNJV-_QS-1553" value="&amp;nbsp;Implementation" style="ellipse;whiteSpace=wrap;html=1;shadow=0;fontFamily=Helvetica;fontSize=20;fontColor=#FFFFFF;align=center;strokeWidth=3;fillColor=#1699D3;strokeColor=none;aspect=fixed;" vertex="1" parent="1">
          <mxGeometry x="1890" y="271.5" width="176" height="176" as="geometry" />
        </mxCell>
        <mxCell id="o9pdHSFh_AW5zNJV-_QS-1555" value="Rate Limiting Responses" style="ellipse;whiteSpace=wrap;html=1;shadow=0;fontFamily=Helvetica;fontSize=20;fontColor=#FFFFFF;align=center;strokeWidth=3;fillColor=#1699D3;strokeColor=none;aspect=fixed;" vertex="1" parent="1">
          <mxGeometry x="2371" y="336.5" width="176" height="176" as="geometry" />
        </mxCell>
        <mxCell id="o9pdHSFh_AW5zNJV-_QS-1557" style="endArrow=none;strokeWidth=6;strokeColor=#1699D3;html=1;" edge="1" parent="1" source="o9pdHSFh_AW5zNJV-_QS-1553" target="o9pdHSFh_AW5zNJV-_QS-1555">
          <mxGeometry relative="1" as="geometry">
            <mxPoint x="2065" y="451" as="sourcePoint" />
            <mxPoint x="2337" y="360" as="targetPoint" />
          </mxGeometry>
        </mxCell>
        <mxCell id="o9pdHSFh_AW5zNJV-_QS-1558" value="Blocking" style="rounded=1;fillColor=#64BBE2;strokeColor=none;strokeWidth=3;shadow=0;html=1;fontColor=#FFFFFF;fontSize=14;" vertex="1" parent="1">
          <mxGeometry x="2630" y="270" width="120" height="40" as="geometry" />
        </mxCell>
        <mxCell id="o9pdHSFh_AW5zNJV-_QS-1559" value="" style="edgeStyle=none;endArrow=none;strokeWidth=3;strokeColor=#64BBE2;html=1;" edge="1" parent="1" target="o9pdHSFh_AW5zNJV-_QS-1558" source="o9pdHSFh_AW5zNJV-_QS-1555">
          <mxGeometry x="-24" y="196.5" width="100" height="100" as="geometry">
            <mxPoint x="2546" y="391.5" as="sourcePoint" />
            <mxPoint x="621.5" y="-178" as="targetPoint" />
          </mxGeometry>
        </mxCell>
        <mxCell id="o9pdHSFh_AW5zNJV-_QS-1560" value="Throttling" style="rounded=1;fillColor=#64BBE2;strokeColor=none;strokeWidth=3;shadow=0;html=1;fontColor=#FFFFFF;fontSize=14;" vertex="1" parent="1">
          <mxGeometry x="2680" y="416.5" width="120" height="40" as="geometry" />
        </mxCell>
        <mxCell id="o9pdHSFh_AW5zNJV-_QS-1561" value="" style="edgeStyle=none;endArrow=none;strokeWidth=3;strokeColor=#64BBE2;html=1;" edge="1" parent="1" target="o9pdHSFh_AW5zNJV-_QS-1560" source="o9pdHSFh_AW5zNJV-_QS-1555">
          <mxGeometry x="-24" y="196.5" width="100" height="100" as="geometry">
            <mxPoint x="2560" y="496.5" as="sourcePoint" />
            <mxPoint x="635.5" y="-73" as="targetPoint" />
          </mxGeometry>
        </mxCell>
        <mxCell id="o9pdHSFh_AW5zNJV-_QS-1562" value="Shaping" style="rounded=1;fillColor=#64BBE2;strokeColor=none;strokeWidth=3;shadow=0;html=1;fontColor=#FFFFFF;fontSize=14;" vertex="1" parent="1">
          <mxGeometry x="2600" y="584" width="120" height="40" as="geometry" />
        </mxCell>
        <mxCell id="o9pdHSFh_AW5zNJV-_QS-1563" value="" style="edgeStyle=none;endArrow=none;strokeWidth=3;strokeColor=#64BBE2;html=1;" edge="1" parent="1" target="o9pdHSFh_AW5zNJV-_QS-1562" source="o9pdHSFh_AW5zNJV-_QS-1555">
          <mxGeometry x="-24" y="196.5" width="100" height="100" as="geometry">
            <mxPoint x="2572.25" y="630.5" as="sourcePoint" />
            <mxPoint x="647.75" y="61" as="targetPoint" />
          </mxGeometry>
        </mxCell>
        <mxCell id="o9pdHSFh_AW5zNJV-_QS-1564" value="Requests are Denied access&lt;br&gt;HTTP status code 429 &lt;br&gt;(Too Many Requests)." style="ellipse;shape=cloud;whiteSpace=wrap;html=1;fontSize=14;fillColor=#b1ddf0;strokeColor=#10739e;rounded=1;strokeWidth=3;shadow=0;" vertex="1" parent="1">
          <mxGeometry x="2770" y="231.5" width="350" height="80" as="geometry" />
        </mxCell>
        <mxCell id="o9pdHSFh_AW5zNJV-_QS-1566" value="" style="endArrow=none;strokeWidth=3;strokeColor=#64BBE2;html=1;entryX=0.1;entryY=0.511;entryDx=0;entryDy=0;entryPerimeter=0;dashed=1;" edge="1" parent="1" source="o9pdHSFh_AW5zNJV-_QS-1558" target="o9pdHSFh_AW5zNJV-_QS-1564">
          <mxGeometry x="-24" y="196.5" width="100" height="100" as="geometry">
            <mxPoint x="2760" y="370" as="sourcePoint" />
            <mxPoint x="2881" y="300" as="targetPoint" />
          </mxGeometry>
        </mxCell>
        <mxCell id="o9pdHSFh_AW5zNJV-_QS-1567" value="Slowing or delaying the requests that&lt;br&gt;go beyond limit.&lt;br&gt;(like reducing quality of stream &lt;br&gt;for users exhausted data limit.)" style="ellipse;shape=cloud;whiteSpace=wrap;html=1;fontSize=14;fillColor=#b1ddf0;strokeColor=#10739e;rounded=1;strokeWidth=3;shadow=0;" vertex="1" parent="1">
          <mxGeometry x="2850" y="377" width="350" height="135.5" as="geometry" />
        </mxCell>
        <mxCell id="o9pdHSFh_AW5zNJV-_QS-1568" value="" style="endArrow=none;strokeWidth=3;strokeColor=#64BBE2;html=1;entryX=0.098;entryY=0.548;entryDx=0;entryDy=0;entryPerimeter=0;dashed=1;" edge="1" parent="1" target="o9pdHSFh_AW5zNJV-_QS-1567" source="o9pdHSFh_AW5zNJV-_QS-1560">
          <mxGeometry x="-24" y="196.5" width="100" height="100" as="geometry">
            <mxPoint x="2790" y="434" as="sourcePoint" />
            <mxPoint x="2855" y="453.7404999999999" as="targetPoint" />
          </mxGeometry>
        </mxCell>
        <mxCell id="o9pdHSFh_AW5zNJV-_QS-1569" value="Allowing the requests that surpassed limit,&lt;br&gt;but assigned lower priority.&lt;br&gt;So that users with requests under limits can continue to receive quality service" style="ellipse;shape=cloud;whiteSpace=wrap;html=1;fontSize=14;fillColor=#b1ddf0;strokeColor=#10739e;rounded=1;strokeWidth=3;shadow=0;" vertex="1" parent="1">
          <mxGeometry x="2770" y="546" width="350" height="135.5" as="geometry" />
        </mxCell>
        <mxCell id="o9pdHSFh_AW5zNJV-_QS-1570" value="" style="endArrow=none;strokeWidth=3;strokeColor=#64BBE2;html=1;entryX=0.1;entryY=0.511;entryDx=0;entryDy=0;entryPerimeter=0;dashed=1;" edge="1" parent="1" target="o9pdHSFh_AW5zNJV-_QS-1569" source="o9pdHSFh_AW5zNJV-_QS-1562">
          <mxGeometry x="-24" y="196.5" width="100" height="100" as="geometry">
            <mxPoint x="2750" y="606.5" as="sourcePoint" />
            <mxPoint x="2871" y="614.5" as="targetPoint" />
          </mxGeometry>
        </mxCell>
        <mxCell id="o9pdHSFh_AW5zNJV-_QS-1571" value="Rate Limiting&lt;br&gt;Rules" style="ellipse;whiteSpace=wrap;html=1;shadow=0;fontFamily=Helvetica;fontSize=20;fontColor=#FFFFFF;align=center;strokeWidth=3;fillColor=#1699D3;strokeColor=none;aspect=fixed;" vertex="1" parent="1">
          <mxGeometry x="2320" y="721.5" width="176" height="176" as="geometry" />
        </mxCell>
        <mxCell id="o9pdHSFh_AW5zNJV-_QS-1572" value="Stored on disks" style="rounded=1;fillColor=#64BBE2;strokeColor=none;strokeWidth=3;shadow=0;html=1;fontColor=#FFFFFF;fontSize=14;" vertex="1" parent="1">
          <mxGeometry x="2580" y="870" width="120" height="40" as="geometry" />
        </mxCell>
        <mxCell id="o9pdHSFh_AW5zNJV-_QS-1573" value="" style="edgeStyle=none;endArrow=none;strokeWidth=3;strokeColor=#64BBE2;html=1;" edge="1" parent="1" source="o9pdHSFh_AW5zNJV-_QS-1571" target="o9pdHSFh_AW5zNJV-_QS-1572">
          <mxGeometry x="-24" y="196.5" width="100" height="100" as="geometry">
            <mxPoint x="2435" y="736" as="sourcePoint" />
            <mxPoint x="510.5" y="166.5" as="targetPoint" />
          </mxGeometry>
        </mxCell>
        <mxCell id="o9pdHSFh_AW5zNJV-_QS-1574" style="endArrow=none;strokeWidth=6;strokeColor=#1699D3;html=1;" edge="1" parent="1" source="o9pdHSFh_AW5zNJV-_QS-1553" target="o9pdHSFh_AW5zNJV-_QS-1571">
          <mxGeometry relative="1" as="geometry">
            <mxPoint x="1973.5" y="530.5" as="sourcePoint" />
            <mxPoint x="2266.5" y="676.5" as="targetPoint" />
          </mxGeometry>
        </mxCell>
        <mxCell id="o9pdHSFh_AW5zNJV-_QS-1575" value="When workers load rules from disks,&lt;br&gt;these rules are loaded into cache for faster access by Rate Limiter middleware" style="ellipse;shape=cloud;whiteSpace=wrap;html=1;fontSize=14;fillColor=#b1ddf0;strokeColor=#10739e;rounded=1;strokeWidth=3;shadow=0;" vertex="1" parent="1">
          <mxGeometry x="2710" y="914.5" width="350" height="135.5" as="geometry" />
        </mxCell>
        <mxCell id="o9pdHSFh_AW5zNJV-_QS-1576" value="" style="endArrow=none;strokeWidth=3;strokeColor=#64BBE2;html=1;entryX=0.1;entryY=0.511;entryDx=0;entryDy=0;entryPerimeter=0;dashed=1;exitX=0.75;exitY=1;exitDx=0;exitDy=0;" edge="1" parent="1" target="o9pdHSFh_AW5zNJV-_QS-1575" source="o9pdHSFh_AW5zNJV-_QS-1572">
          <mxGeometry x="-24" y="196.5" width="100" height="100" as="geometry">
            <mxPoint x="2660" y="977.5" as="sourcePoint" />
            <mxPoint x="2811" y="983" as="targetPoint" />
          </mxGeometry>
        </mxCell>
        <mxCell id="o9pdHSFh_AW5zNJV-_QS-1579" value="" style="edgeStyle=none;endArrow=none;strokeWidth=3;strokeColor=#F5AF58;html=1;" edge="1" parent="1" source="1355" target="1473">
          <mxGeometry x="243.5" y="39" width="100" height="100" as="geometry">
            <mxPoint x="1040" y="1661" as="sourcePoint" />
            <mxPoint x="1051" y="1761" as="targetPoint" />
          </mxGeometry>
        </mxCell>
        <mxCell id="o9pdHSFh_AW5zNJV-_QS-1580" value="If rules are too strict, &lt;br&gt;then it may be dropping &lt;br&gt;valid requests" style="ellipse;shape=cloud;whiteSpace=wrap;html=1;fontSize=14;fillColor=#d0cee2;strokeColor=#56517e;rounded=1;strokeWidth=3;shadow=0;" vertex="1" parent="1">
          <mxGeometry x="1550" y="1720" width="220" height="150" as="geometry" />
        </mxCell>
        <mxCell id="o9pdHSFh_AW5zNJV-_QS-1582" value="We may want to allow an increase in &lt;br&gt;traffic on several occasions like, flash sales.&lt;br&gt;And RL Algo become ineffective in this case.&lt;br&gt;So, we can opt for token bucket Rate Limiter Algo." style="ellipse;shape=cloud;whiteSpace=wrap;html=1;fontSize=14;fillColor=#d0cee2;strokeColor=#56517e;rounded=1;strokeWidth=3;shadow=0;" vertex="1" parent="1">
          <mxGeometry x="1850" y="1633.5" width="440" height="163.5" as="geometry" />
        </mxCell>
        <mxCell id="o9pdHSFh_AW5zNJV-_QS-1584" value="The number of request &lt;br&gt;cannot exceed the threshold." style="ellipse;shape=cloud;whiteSpace=wrap;html=1;fillColor=#ffe6cc;strokeColor=#d79b00;rounded=1;strokeWidth=3;shadow=0;" vertex="1" parent="1">
          <mxGeometry x="760" y="1733.5" width="221.5" height="80" as="geometry" />
        </mxCell>
        <mxCell id="o9pdHSFh_AW5zNJV-_QS-1586" value="" style="edgeStyle=orthogonalEdgeStyle;rounded=0;orthogonalLoop=1;jettySize=auto;html=1;fillColor=#fad7ac;strokeColor=#b46504;curved=1;" edge="1" parent="1" target="o9pdHSFh_AW5zNJV-_QS-1587" source="1472">
          <mxGeometry relative="1" as="geometry">
            <mxPoint x="1229" y="1713.5" as="sourcePoint" />
          </mxGeometry>
        </mxCell>
        <mxCell id="o9pdHSFh_AW5zNJV-_QS-1587" value="The number of requests may exceed &lt;br&gt;the set threshold for short duration." style="ellipse;shape=cloud;whiteSpace=wrap;html=1;fillColor=#ffe6cc;strokeColor=#d79b00;rounded=1;strokeWidth=3;shadow=0;" vertex="1" parent="1">
          <mxGeometry x="1140" y="1733.5" width="250" height="110" as="geometry" />
        </mxCell>
        <UserObject label="1" id="o9pdHSFh_AW5zNJV-_QS-1591">
          <mxCell style="rounded=1;strokeWidth=3;shadow=0;html=1;fontSize=29;fontFamily=Tahoma;" vertex="1" parent="1">
            <mxGeometry x="430" y="840" width="35" height="35" as="geometry" />
          </mxCell>
        </UserObject>
        <UserObject label="2" id="o9pdHSFh_AW5zNJV-_QS-1593">
          <mxCell style="rounded=1;strokeWidth=3;shadow=0;html=1;fontSize=29;fontFamily=Tahoma;arcSize=0;" vertex="1" parent="1">
            <mxGeometry x="610" y="412.5" width="35" height="35" as="geometry" />
          </mxCell>
        </UserObject>
        <UserObject label="3" id="o9pdHSFh_AW5zNJV-_QS-1594">
          <mxCell style="rounded=1;strokeWidth=3;shadow=0;html=1;fontSize=29;fontFamily=Tahoma;arcSize=0;" vertex="1" parent="1">
            <mxGeometry x="1265" y="365" width="35" height="35" as="geometry" />
          </mxCell>
        </UserObject>
        <UserObject label="4" id="o9pdHSFh_AW5zNJV-_QS-1595">
          <mxCell style="rounded=1;strokeWidth=3;shadow=0;html=1;fontSize=29;fontFamily=Tahoma;arcSize=0;" vertex="1" parent="1">
            <mxGeometry x="1897.5" y="447.5" width="35" height="35" as="geometry" />
          </mxCell>
        </UserObject>
        <UserObject label="5" id="o9pdHSFh_AW5zNJV-_QS-1596">
          <mxCell style="rounded=1;strokeWidth=3;shadow=0;html=1;fontSize=29;fontFamily=Tahoma;arcSize=0;" vertex="1" parent="1">
            <mxGeometry x="1790" y="1015" width="35" height="35" as="geometry" />
          </mxCell>
        </UserObject>
        <UserObject label="6" id="o9pdHSFh_AW5zNJV-_QS-1597">
          <mxCell style="rounded=1;strokeWidth=3;shadow=0;html=1;fontSize=29;fontFamily=Tahoma;arcSize=0;" vertex="1" parent="1">
            <mxGeometry x="1590" y="1250" width="35" height="35" as="geometry" />
          </mxCell>
        </UserObject>
        <UserObject label="7" id="o9pdHSFh_AW5zNJV-_QS-1599">
          <mxCell style="rounded=1;strokeWidth=3;shadow=0;html=1;fontSize=29;fontFamily=Tahoma;arcSize=0;" vertex="1" parent="1">
            <mxGeometry x="1145" y="1417" width="35" height="35" as="geometry" />
          </mxCell>
        </UserObject>
      </root>
    </mxGraphModel>
  </diagram>
</mxfile>
